<svg width="26" height="26" xmlns="http://www.w3.org/2000/svg">

 <g>
  <title>background</title>
  <rect fill="none" id="canvas_background" height="402" width="582" y="-1" x="-1"/>
 </g>
 <g>
  <title>Layer 1</title>
  <path id="svg_1" fill="#6c454f" d="m20.875,8.875c-1.34113,0 -2.52307,0.65326 -3.27698,1.64764l-8.52661,-4.2633c0.10468,-0.36279 0.17859,-0.73834 0.17859,-1.13434c0,-2.27441 -1.85059,-4.125 -4.125,-4.125s-4.125,1.85059 -4.125,4.125s1.85059,4.125 4.125,4.125c1.34131,0 2.52344,-0.65344 3.27728,-1.64801l8.52643,4.26324c-0.10474,0.36292 -0.17871,0.73859 -0.17871,1.13477c0,0.396 0.07391,0.77155 0.17859,1.13434l-8.52661,4.2633c-0.75391,-0.99438 -1.93585,-1.64764 -3.27698,-1.64764c-2.27441,0 -4.125,1.85059 -4.125,4.125s1.85059,4.125 4.125,4.125s4.125,-1.85059 4.125,-4.125c0,-0.39618 -0.07397,-0.77185 -0.17871,-1.13477l8.52643,-4.26324c0.75384,0.99457 1.93597,1.64801 3.27728,1.64801c2.27441,0 4.125,-1.85059 4.125,-4.125s-1.85059,-4.125 -4.125,-4.125zm-15.75,-1.125c-1.44727,0 -2.625,-1.17773 -2.625,-2.625s1.17773,-2.625 2.625,-2.625s2.625,1.17773 2.625,2.625s-1.17773,2.625 -2.625,2.625zm0,15.75c-1.44727,0 -2.625,-1.17773 -2.625,-2.625s1.17773,-2.625 2.625,-2.625s2.625,1.17773 2.625,2.625s-1.17773,2.625 -2.625,2.625zm15.75,-7.875c-1.44727,0 -2.625,-1.17773 -2.625,-2.625s1.17773,-2.625 2.625,-2.625s2.625,1.17773 2.625,2.625s-1.17773,2.625 -2.625,2.625z"/>
 </g>
</svg>